<svg width="141" height="24" viewBox="0 0 141 24" fill="none" xmlns="http://www.w3.org/2000/svg">
<path d="M25.3053 6.3347C25.3053 5.73105 24.8159 5.2417 24.2123 5.2417C23.6086 5.2417 23.1193 5.73105 23.1193 6.3347V17.2797C23.1193 17.8833 23.6086 18.3727 24.2123 18.3727C24.8159 18.3727 25.3053 17.8833 25.3053 17.2797V6.3347Z" fill="black"/>
<path opacity="0.4" d="M117.656 6.3347C117.656 5.73105 117.167 5.2417 116.563 5.2417C115.96 5.2417 115.47 5.73105 115.47 6.3347V17.2797C115.47 17.8833 115.96 18.3727 116.563 18.3727C117.167 18.3727 117.656 17.8833 117.656 17.2797V6.3347Z" fill="black"/>
<path d="M39.3222 6.21312C39.3222 5.60947 38.8329 5.12012 38.2292 5.12012C37.6256 5.12012 37.1362 5.60947 37.1362 6.21312V17.4021C37.1362 18.0058 37.6256 18.4951 38.2292 18.4951C38.8329 18.4951 39.3222 18.0058 39.3222 17.4021V6.21312Z" fill="black"/>
<path d="M20.3573 6.21312C20.3573 5.60947 19.8679 5.12012 19.2643 5.12012C18.6606 5.12012 18.1713 5.60947 18.1713 6.21312V17.4021C18.1713 18.0058 18.6606 18.4951 19.2643 18.4951C19.8679 18.4951 20.3573 18.0058 20.3573 17.4021V6.21312Z" fill="black"/>
<path opacity="0.4" d="M112.708 6.21312C112.708 5.60947 112.219 5.12012 111.615 5.12012C111.012 5.12012 110.522 5.60947 110.522 6.21312V17.4021C110.522 18.0058 111.012 18.4951 111.615 18.4951C112.219 18.4951 112.708 18.0058 112.708 17.4021V6.21312Z" fill="black"/>
<path d="M53.3403 7.42894C53.3403 6.82529 52.8509 6.33594 52.2473 6.33594C51.6436 6.33594 51.1543 6.82529 51.1543 7.42894V16.1859C51.1543 16.7896 51.6436 17.2789 52.2473 17.2789C52.8509 17.2789 53.3403 16.7896 53.3403 16.1859V7.42894Z" fill="black"/>
<path opacity="0.4" d="M71.4802 7.42894C71.4802 6.82529 70.9908 6.33594 70.3872 6.33594C69.7835 6.33594 69.2942 6.82529 69.2942 7.42894V16.1859C69.2942 16.7896 69.7835 17.2789 70.3872 17.2789C70.9908 17.2789 71.4802 16.7896 71.4802 16.1859V7.42894Z" fill="black"/>
<path d="M2.21725 7.42894C2.21725 6.82529 1.7279 6.33594 1.12425 6.33594C0.520603 6.33594 0.03125 6.82529 0.03125 7.42894V16.1859C0.03125 16.7896 0.520603 17.2789 1.12425 17.2789C1.7279 17.2789 2.21725 16.7896 2.21725 16.1859V7.42894Z" fill="black"/>
<path opacity="0.4" d="M89.6213 7.42894C89.6213 6.82529 89.132 6.33594 88.5283 6.33594C87.9247 6.33594 87.4353 6.82529 87.4353 7.42894V16.1859C87.4353 16.7896 87.9247 17.2789 88.5283 17.2789C89.132 17.2789 89.6213 16.7896 89.6213 16.1859V7.42894Z" fill="black"/>
<path d="M48.3933 9.86107C48.3933 9.25742 47.9039 8.76807 47.3003 8.76807C46.6966 8.76807 46.2073 9.25742 46.2073 9.86107V13.7551C46.2073 14.3587 46.6966 14.8481 47.3003 14.8481C47.9039 14.8481 48.3933 14.3587 48.3933 13.7551V9.86107Z" fill="black"/>
<path opacity="0.4" d="M76.4272 9.86107C76.4272 9.25742 75.9379 8.76807 75.3342 8.76807C74.7306 8.76807 74.2412 9.25742 74.2412 9.86107V13.7551C74.2412 14.3587 74.7306 14.8481 75.3342 14.8481C75.9379 14.8481 76.4272 14.3587 76.4272 13.7551V9.86107Z" fill="black"/>
<path d="M7.16427 9.86107C7.16427 9.25742 6.67492 8.76807 6.07127 8.76807C5.46762 8.76807 4.97827 9.25742 4.97827 9.86107V13.7551C4.97827 14.3587 5.46762 14.8481 6.07127 14.8481C6.67492 14.8481 7.16427 14.3587 7.16427 13.7551V9.86107Z" fill="black"/>
<path opacity="0.4" d="M99.5162 9.86107C99.5162 9.25742 99.0268 8.76807 98.4232 8.76807C97.8196 8.76807 97.3302 9.25742 97.3302 9.86107V13.7551C97.3302 14.3587 97.8196 14.8481 98.4232 14.8481C99.0268 14.8481 99.5162 14.3587 99.5162 13.7551V9.86107Z" fill="black"/>
<path opacity="0.4" d="M135.796 9.86107C135.796 9.25742 135.307 8.76807 134.703 8.76807C134.1 8.76807 133.61 9.25742 133.61 9.86107V13.7551C133.61 14.3587 134.1 14.8481 134.703 14.8481C135.307 14.8481 135.796 14.3587 135.796 13.7551V9.86107Z" fill="black"/>
<path opacity="0.4" d="M94.5682 9.86107C94.5682 9.25742 94.0788 8.76807 93.4752 8.76807C92.8716 8.76807 92.3822 9.25742 92.3822 9.86107V13.7551C92.3822 14.3587 92.8716 14.8481 93.4752 14.8481C94.0788 14.8481 94.5682 14.3587 94.5682 13.7551V9.86107Z" fill="black"/>
<path opacity="0.4" d="M140.744 9.86107C140.744 9.25742 140.255 8.76807 139.651 8.76807C139.048 8.76807 138.558 9.25742 138.558 9.86107V13.7551C138.558 14.3587 139.048 14.8481 139.651 14.8481C140.255 14.8481 140.744 14.3587 140.744 13.7551V9.86107Z" fill="black"/>
<path d="M34.3752 7.30784C34.3752 6.7042 33.8859 6.21484 33.2822 6.21484C32.6786 6.21484 32.1892 6.7042 32.1892 7.30784V16.3068C32.1892 16.9105 32.6786 17.3998 33.2822 17.3998C33.8859 17.3998 34.3752 16.9105 34.3752 16.3068V7.30784Z" fill="black"/>
<path opacity="0.4" d="M126.726 7.30784C126.726 6.7042 126.237 6.21484 125.633 6.21484C125.03 6.21484 124.54 6.7042 124.54 7.30784V16.3068C124.54 16.9105 125.03 17.3998 125.633 17.3998C126.237 17.3998 126.726 16.9105 126.726 16.3068V7.30784Z" fill="black"/>
<path opacity="0.4" d="M66.5333 7.30784C66.5333 6.7042 66.0439 6.21484 65.4403 6.21484C64.8366 6.21484 64.3473 6.7042 64.3473 7.30784V16.3068C64.3473 16.9105 64.8366 17.3998 65.4403 17.3998C66.0439 17.3998 66.5333 16.9105 66.5333 16.3068V7.30784Z" fill="black"/>
<path d="M30.2523 4.63304C30.2523 4.02939 29.7629 3.54004 29.1593 3.54004C28.5556 3.54004 28.0663 4.02939 28.0663 4.63304V18.982C28.0663 19.5857 28.5556 20.075 29.1593 20.075C29.7629 20.075 30.2523 19.5857 30.2523 18.982V4.63304Z" fill="black"/>
<path opacity="0.4" d="M122.603 4.63304C122.603 4.02939 122.114 3.54004 121.51 3.54004C120.907 3.54004 120.417 4.02939 120.417 4.63304V18.982C120.417 19.5857 120.907 20.075 121.51 20.075C122.114 20.075 122.603 19.5857 122.603 18.982V4.63304Z" fill="black"/>
<path opacity="0.4" d="M62.4102 4.63304C62.4102 4.02939 61.9209 3.54004 61.3172 3.54004C60.7136 3.54004 60.2242 4.02939 60.2242 4.63304V18.982C60.2242 19.5857 60.7136 20.075 61.3172 20.075C61.9209 20.075 62.4102 19.5857 62.4102 18.982V4.63304Z" fill="black"/>
<path d="M43.4453 4.63304C43.4453 4.02939 42.9559 3.54004 42.3523 3.54004C41.7486 3.54004 41.2593 4.02939 41.2593 4.63304V18.982C41.2593 19.5857 41.7486 20.075 42.3523 20.075C42.9559 20.075 43.4453 19.5857 43.4453 18.982V4.63304Z" fill="black"/>
<path opacity="0.4" d="M57.4632 1.47191C57.4632 0.868259 56.9739 0.378906 56.3702 0.378906C55.7666 0.378906 55.2772 0.868259 55.2772 1.47191V22.1439C55.2772 22.7476 55.7666 23.2369 56.3702 23.2369C56.9739 23.2369 57.4632 22.7476 57.4632 22.1439V1.47191Z" fill="black"/>
<path opacity="0.4" d="M80.5512 7.91575C80.5512 7.31211 80.0619 6.82275 79.4582 6.82275C78.8546 6.82275 78.3652 7.31211 78.3652 7.91575V15.7008C78.3652 16.3044 78.8546 16.7938 79.4582 16.7938C80.0619 16.7938 80.5512 16.3044 80.5512 15.7008V7.91575Z" fill="black"/>
<path d="M11.2872 7.91575C11.2872 7.31211 10.7978 6.82275 10.1942 6.82275C9.59055 6.82275 9.1012 7.31211 9.1012 7.91575V15.7008C9.1012 16.3044 9.59055 16.7938 10.1942 16.7938C10.7978 16.7938 11.2872 16.3044 11.2872 15.7008V7.91575Z" fill="black"/>
<path opacity="0.4" d="M103.638 7.91575C103.638 7.31211 103.149 6.82275 102.545 6.82275C101.942 6.82275 101.452 7.31211 101.452 7.91575V15.7008C101.452 16.3044 101.942 16.7938 102.545 16.7938C103.149 16.7938 103.638 16.3044 103.638 15.7008V7.91575Z" fill="black"/>
<path opacity="0.4" d="M131.673 7.91575C131.673 7.31211 131.184 6.82275 130.58 6.82275C129.977 6.82275 129.487 7.31211 129.487 7.91575V15.6998C129.487 16.3034 129.977 16.7928 130.58 16.7928C131.184 16.7928 131.673 16.3034 131.673 15.6998V7.91575Z" fill="black"/>
<path opacity="0.4" d="M85.4983 6.3347C85.4983 5.73105 85.0089 5.2417 84.4053 5.2417C83.8016 5.2417 83.3123 5.73105 83.3123 6.3347V17.2797C83.3123 17.8833 83.8016 18.3727 84.4053 18.3727C85.0089 18.3727 85.4983 17.8833 85.4983 17.2797V6.3347Z" fill="black"/>
<path d="M16.2352 6.3347C16.2352 5.73105 15.7458 5.2417 15.1422 5.2417C14.5385 5.2417 14.0492 5.73105 14.0492 6.3347V17.2797C14.0492 17.8833 14.5385 18.3727 15.1422 18.3727C15.7458 18.3727 16.2352 17.8833 16.2352 17.2797V6.3347Z" fill="black"/>
<path opacity="0.4" d="M108.585 6.3347C108.585 5.73105 108.096 5.2417 107.492 5.2417C106.889 5.2417 106.399 5.73105 106.399 6.3347V17.2797C106.399 17.8833 106.889 18.3727 107.492 18.3727C108.096 18.3727 108.585 17.8833 108.585 17.2797V6.3347Z" fill="black"/>
</svg>
