<svg width="127" height="44" viewBox="0 0 127 44" fill="none" xmlns="http://www.w3.org/2000/svg">
<g clip-path="url(#clip0_1_4)">
<path d="M17.656 10.634H24.038L15.624 33.751C14.7636 36.5759 13.1013 39.0901 10.839 40.988C8.68792 42.5296 6.05316 43.2439 3.418 43V37.453C4.7685 37.5548 6.11364 37.1959 7.23401 36.435C8.29975 35.538 9.07977 34.3489 9.478 33.014L0 10.634H6.52002L12.531 26.168L17.663 10.634H17.656Z" fill="#A591EF"/>
<path d="M28.619 24.644C29.419 27.542 31.5924 28.9907 35.139 28.9901C36.1249 29.0536 37.1114 28.8762 38.0133 28.4732C38.9153 28.0702 39.7056 27.4538 40.316 26.6771L45.126 29.4511C42.844 32.7511 39.484 34.4004 35.046 34.3991C33.3575 34.4767 31.6709 34.2094 30.0891 33.6135C28.5073 33.0176 27.0636 32.1055 25.846 30.9331C24.0907 29.2269 22.8893 27.0322 22.3978 24.6342C21.9064 22.2362 22.1477 19.7458 23.0903 17.4867C24.0329 15.2277 25.6333 13.3044 27.6834 11.9669C29.7336 10.6294 32.1387 9.93959 34.5861 9.98707C36.1542 9.94151 37.714 10.2315 39.161 10.8377C40.6079 11.444 41.9086 12.3523 42.976 13.5021C45.1815 15.8495 46.3702 18.9733 46.283 22.1931C46.2789 23.0157 46.2013 23.8363 46.051 24.6451L28.619 24.644ZM28.525 20.0211H40.3151C40.0842 18.625 39.3318 17.3686 38.21 16.506C37.1567 15.7394 35.8838 15.3336 34.5811 15.3491C33.1551 15.293 31.7527 15.7255 30.606 16.575C29.5266 17.441 28.7892 18.6617 28.525 20.0201V20.0211Z" fill="#A591EF"/>
<path d="M69.4028 33.751H62.4669L54.0529 23.251V33.751H48.0898V1.38501H54.0529V20.805L62.0068 10.632H69.1259L59.8318 22.052L69.4028 33.752V33.751Z" fill="#A591EF"/>
<path d="M88.043 13.521C86.402 11.9065 84.3372 10.7898 82.0879 10.3C79.8385 9.81028 77.4965 9.96752 75.3328 10.7536C73.169 11.5396 71.2721 12.9223 69.8616 14.7417C68.4511 16.561 67.5846 18.7426 67.3625 21.034C67.1404 23.3253 67.5717 25.6327 68.6066 27.6891C69.6414 29.7455 71.2374 31.4668 73.2098 32.6537C75.1823 33.8407 77.4506 34.4449 79.7521 34.3963C82.0537 34.3476 84.2944 33.6483 86.215 32.379L82.493 28.511C81.5128 28.9823 80.4365 29.2195 79.349 29.204C78.4399 29.2289 77.5354 29.0659 76.6922 28.725C75.849 28.3841 75.0854 27.8728 74.449 27.223C73.1904 25.8496 72.4922 24.0544 72.4922 22.1915C72.4922 20.3286 73.1904 18.5334 74.449 17.16C75.0856 16.5106 75.8493 15.9994 76.6924 15.6585C77.5355 15.3177 78.4399 15.1544 79.349 15.179C80.2619 15.1556 81.1701 15.3193 82.0174 15.66C82.8647 16.0007 83.6333 16.5112 84.276 17.16C84.9309 17.8199 85.444 18.6066 85.7838 19.4719C86.1236 20.3372 86.2829 21.2629 86.252 22.192V32.348C86.8916 31.9085 87.4898 31.4114 88.039 30.863C90.3196 28.5534 91.5984 25.4383 91.5984 22.1925C91.5984 18.9467 90.3196 15.8316 88.039 13.522L88.043 13.521Z" fill="#A591EF"/>
<path d="M93.4551 33.751V0H99.4181V33.751H93.4551Z" fill="#A591EF"/>
<path d="M120.09 10.6341H126.053V33.751H120.09V31.0221C119.191 32.1406 118.039 33.0297 116.729 33.6166C115.419 34.2035 113.988 34.4713 112.555 34.398C111.055 34.4254 109.567 34.123 108.197 33.5122C106.827 32.9014 105.607 31.997 104.625 30.863C102.495 28.477 101.318 25.3907 101.318 22.1926C101.318 18.9944 102.495 15.9081 104.625 13.5221C105.617 12.4 106.838 11.5038 108.206 10.894C109.574 10.2842 111.057 9.9749 112.555 9.98705C113.988 9.91339 115.419 10.181 116.729 10.7679C118.039 11.3548 119.191 12.2442 120.09 13.363V10.6341ZM109.09 26.8841C109.686 27.4872 110.401 27.9607 111.188 28.2747C111.976 28.5888 112.82 28.7366 113.668 28.709C114.519 28.734 115.365 28.5849 116.156 28.2711C116.947 27.9573 117.666 27.4853 118.268 26.8841C119.442 25.6034 120.093 23.9293 120.093 22.192C120.093 20.4548 119.442 18.7807 118.268 17.5C117.667 16.8979 116.948 16.4253 116.157 16.1114C115.366 15.7975 114.519 15.649 113.668 15.675C112.82 15.6478 111.976 15.7959 111.189 16.1099C110.401 16.424 109.686 16.8972 109.09 17.5C107.928 18.7865 107.285 20.4584 107.285 22.192C107.285 23.9256 107.928 25.5976 109.09 26.8841Z" fill="#A591EF"/>
<path d="M86.2559 32.3489V32.4249L86.2109 32.3799C86.2246 32.3678 86.2397 32.3573 86.2559 32.3489Z" fill="#A591EF"/>
<path d="M76.4501 23.104C76.9532 23.104 77.3611 22.6961 77.3611 22.193C77.3611 21.6899 76.9532 21.282 76.4501 21.282C75.9469 21.282 75.5391 21.6899 75.5391 22.193C75.5391 22.6961 75.9469 23.104 76.4501 23.104Z" fill="#A591EF"/>
<path d="M79.3729 23.104C79.876 23.104 80.2839 22.6961 80.2839 22.193C80.2839 21.6899 79.876 21.282 79.3729 21.282C78.8698 21.282 78.4619 21.6899 78.4619 22.193C78.4619 22.6961 78.8698 23.104 79.3729 23.104Z" fill="#A591EF"/>
<path d="M82.2953 23.104C82.7984 23.104 83.2063 22.6961 83.2063 22.193C83.2063 21.6899 82.7984 21.282 82.2953 21.282C81.7921 21.282 81.3843 21.6899 81.3843 22.193C81.3843 22.6961 81.7921 23.104 82.2953 23.104Z" fill="#A591EF"/>
</g>
<defs>
<clipPath id="clip0_1_4">
<rect width="126.053" height="43.021" fill="#A591EF"/>
</clipPath>
</defs>
</svg>
